<?xml version="1.0" encoding="UTF-8"?>
<svg width="400" height="300" viewBox="0 0 400 300" fill="none" xmlns="http://www.w3.org/2000/svg">
  <!-- Abstract background elements -->
  <circle cx="200" cy="150" r="120" stroke="white" stroke-width="2" stroke-opacity="0.2" stroke-dasharray="6 4"/>
  <circle cx="200" cy="150" r="90" stroke="white" stroke-width="1.5" stroke-opacity="0.15" stroke-dasharray="4 6"/>
  
  <!-- Flow lines representing CI/CD pipeline -->
  <path d="M70 150 C120 90, 180 90, 230 150 C280 210, 340 210, 390 150" stroke="#34D399" stroke-width="2.5" stroke-linecap="round" stroke-opacity="0.8" fill="none"/>
  <path d="M70 170 C120 230, 180 230, 230 170 C280 110, 340 110, 390 170" stroke="#2563EB" stroke-width="2.5" stroke-linecap="round" stroke-opacity="0.8" fill="none"/>
  
  <!-- Abstract nodes/checkpoints representing testing stages -->
  <g transform="translate(70, 150)">
    <circle r="8" fill="white" fill-opacity="0.9"/>
    <circle r="12" stroke="white" stroke-width="1.5" stroke-opacity="0.4" fill="none"/>
  </g>
  
  <g transform="translate(150, 120)">
    <circle r="10" fill="#34D399" fill-opacity="0.9"/>
    <circle r="14" stroke="#34D399" stroke-width="1.5" stroke-opacity="0.4" fill="none"/>
    <!-- Checkmark for passed test -->
    <path d="M-4 0 L-1 3 L5 -3" stroke="white" stroke-width="2" stroke-linecap="round" stroke-linejoin="round"/>
  </g>
  
  <g transform="translate(230, 150)">
    <circle r="10" fill="#3B82F6" fill-opacity="0.9"/>
    <circle r="14" stroke="#3B82F6" stroke-width="1.5" stroke-opacity="0.4" fill="none"/>
    <!-- Code symbol -->
    <path d="M-3 -3 L-6 0 L-3 3 M3 -3 L6 0 L3 3" stroke="white" stroke-width="1.5" stroke-linecap="round" stroke-linejoin="round"/>
  </g>
  
  <g transform="translate(310, 130)">
    <circle r="10" fill="#F43F5E" fill-opacity="0.9"/>
    <circle r="14" stroke="#F43F5E" stroke-width="1.5" stroke-opacity="0.4" fill="none"/>
    <!-- Deploy symbol -->
    <path d="M0 -6 L0 6 M-4 2 L0 6 L4 2" stroke="white" stroke-width="1.5" stroke-linecap="round" stroke-linejoin="round"/>
  </g>
  
  <!-- Speed indicators and motion lines -->
  <g opacity="0.8">
    <!-- Motion trails -->
    <path d="M115 120 Q130 115, 140 120" stroke="white" stroke-width="1.5" stroke-linecap="round"/>
    <path d="M195 150 Q210 145, 220 150" stroke="white" stroke-width="1.5" stroke-linecap="round"/>
    <path d="M275 130 Q290 125, 300 130" stroke="white" stroke-width="1.5" stroke-linecap="round"/>
    
    <path d="M120 180 Q135 175, 145 180" stroke="white" stroke-width="1.5" stroke-linecap="round"/>
    <path d="M200 170 Q215 165, 225 170" stroke="white" stroke-width="1.5" stroke-linecap="round"/>
    <path d="M280 180 Q295 175, 305 180" stroke="white" stroke-width="1.5" stroke-linecap="round"/>
  </g>
  
  <!-- Shield symbolizing security/confidence at the center -->
  <g transform="translate(200, 150) scale(0.8)">
    <path d="M0 -60 L40 -40 L40 10 C40 40, 25 60, 0 75 C-25 60, -40 40, -40 10 L-40 -40 Z" fill="#3B82F6" fill-opacity="0.2" stroke="white" stroke-width="2"/>
    <path d="M-15 0 L-5 10 L20 -15" stroke="white" stroke-width="3" stroke-linecap="round" stroke-linejoin="round"/>
  </g>
  
  <!-- Fast data transfer visualization -->
  <g opacity="0.6">
    <circle cx="100" cy="200" r="3" fill="white">
      <animate attributeName="cx" from="100" to="300" dur="4s" repeatCount="indefinite" />
      <animate attributeName="opacity" from="0.8" to="0.2" dur="4s" repeatCount="indefinite" />
    </circle>
    <circle cx="120" cy="220" r="2" fill="white">
      <animate attributeName="cx" from="120" to="320" dur="3s" repeatCount="indefinite" />
      <animate attributeName="opacity" from="0.8" to="0.2" dur="3s" repeatCount="indefinite" />
    </circle>
    <circle cx="150" cy="190" r="2.5" fill="white">
      <animate attributeName="cx" from="150" to="350" dur="3.5s" repeatCount="indefinite" />
      <animate attributeName="opacity" from="0.8" to="0.2" dur="3.5s" repeatCount="indefinite" />
    </circle>
  </g>
  
  <!-- Abstract code representation -->
  <g transform="translate(170, 210)">
    <rect x="0" y="0" width="25" height="5" rx="1" fill="white" fill-opacity="0.5"/>
    <rect x="0" y="10" width="40" height="5" rx="1" fill="white" fill-opacity="0.4"/>
    <rect x="0" y="20" width="15" height="5" rx="1" fill="white" fill-opacity="0.6"/>
  </g>
  <g transform="translate(250, 190)">
    <rect x="0" y="0" width="15" height="5" rx="1" fill="white" fill-opacity="0.5"/>
    <rect x="0" y="10" width="30" height="5" rx="1" fill="white" fill-opacity="0.4"/>
    <rect x="0" y="20" width="25" height="5" rx="1" fill="white" fill-opacity="0.6"/>
  </g>
</svg>