<?xml version="1.0" encoding="UTF-8" standalone="no"?>
<!DOCTYPE svg PUBLIC "-//W3C//DTD SVG 1.1//EN" "http://www.w3.org/Graphics/SVG/1.1/DTD/svg11.dtd">
<svg xmlns="http://www.w3.org/2000/svg" version="1.1" viewBox="0.00 0.00 842.00 150.00">
<g stroke-width="2.00" fill="none" stroke-linecap="butt">
<path stroke="#4f4e4d" vector-effect="non-scaling-stroke" d="
  M 117.81 128.21
  Q 119.35 127.73 124.51 126.77
  C 137.00 124.46 143.46 112.20 143.54 100.25
  Q 143.70 76.13 143.45 52.00
  C 143.30 37.79 139.17 27.09 124.45 23.20
  Q 118.48 21.61 110.88 21.69
  Q 75.35 22.05 15.00 21.84"
/>
<path stroke="#4f4e4d" vector-effect="non-scaling-stroke" d="
  M 114.83 128.33
  Q 109.50 128.05 107.00 128.05
  Q 84.72 127.99 22.75 128.04
  Q 17.39 128.05 14.99 128.92"
/>
<path stroke="#4f4e4d" vector-effect="non-scaling-stroke" d="
  M 280.95 22.64
  Q 279.92 21.65 277.25 21.68
  Q 236.33 22.22 166.01 21.79"
/>
<path stroke="#4f4e4d" vector-effect="non-scaling-stroke" d="
  M 183.98 66.52
  Q 183.17 67.32 184.42 67.82
  A 1.41 1.39 -33.9 0 0 184.94 67.92
  L 279.72 67.82
  A 1.00 1.00 0.0 0 1 280.71 68.94
  L 279.30 80.49"
/>
<path stroke="#4f4e4d" vector-effect="non-scaling-stroke" d="
  M 184.00 111.71
  Q 183.69 111.81 183.67 112.08
  Q 183.61 112.63 184.17 112.63
  L 284.89 112.94"
/>
<path stroke="#78746e" vector-effect="non-scaling-stroke" d="
  M 284.87 129.20
  L 166.02 129.26"
/>
<path stroke="#4f4e4d" vector-effect="non-scaling-stroke" d="
  M 559.30 21.70
  L 481.03 21.82
  Q 480.90 21.82 480.86 21.73
  Q 480.82 21.65 480.72 21.61"
/>
<path stroke="#4f4e4d" vector-effect="non-scaling-stroke" d="
  M 561.55 21.79
  Q 561.55 22.24 562.32 22.37
  C 573.30 24.23 580.93 31.14 582.99 42.02
  Q 583.39 44.17 584.12 46.27"
/>
<path stroke="#4f4e4d" vector-effect="non-scaling-stroke" d="
  M 584.12 103.85
  Q 581.26 123.73 563.61 127.69
  C 559.83 128.54 554.51 128.62 550.73 128.58
  Q 526.43 128.27 502.13 128.38
  C 484.52 128.45 462.11 131.65 457.11 108.96
  Q 456.60 106.61 455.93 104.17"
/>
<path stroke="#4f4e4d" vector-effect="non-scaling-stroke" d="
  M 456.08 45.80
  Q 458.75 25.86 478.81 21.94"
/>
<path stroke="#4f4e4d" vector-effect="non-scaling-stroke" d="
  M 600.16 21.20
  Q 609.52 21.86 618.85 21.70
  C 620.65 21.67 621.82 22.31 622.99 23.52
  Q 641.74 43.02 660.65 62.49"
/>
<path stroke="#4f4e4d" vector-effect="non-scaling-stroke" d="
  M 661.57 62.81
  Q 661.23 62.39 661.25 62.85
  A 0.47 0.47 0.0 0 0 662.05 63.16
  L 667.06 57.97"
/>
<path stroke="#78746e" vector-effect="non-scaling-stroke" d="
  M 667.06 57.97
  L 681.67 43.27"
/>
<path stroke="#7b4610" vector-effect="non-scaling-stroke" d="
  M 681.67 43.27
  Q 687.12 38.74 692.16 32.17
  Q 692.66 31.52 692.91 30.72"
/>
<path stroke="#7b4610" vector-effect="non-scaling-stroke" d="
  M 695.84 28.00
  L 700.64 22.96
  A 4.33 4.30 -68.1 0 1 703.77 21.61
  L 723.51 21.63
  A 0.76 0.76 0.0 0 1 724.05 22.93
  L 692.71 54.09"
/>
<path stroke="#78746e" vector-effect="non-scaling-stroke" d="
  M 692.71 54.09
  L 673.87 72.88
  Q 672.61 74.14 673.87 75.39
  L 692.55 93.91"
/>
<path stroke="#7b4610" vector-effect="non-scaling-stroke" d="
  M 692.55 93.91
  Q 686.73 100.22 681.50 104.75
  Q 681.28 104.94 681.04 104.76"
/>
<path stroke="#78746e" vector-effect="non-scaling-stroke" d="
  M 681.04 104.76
  L 666.27 89.52"
/>
<path stroke="#4f4e4d" vector-effect="non-scaling-stroke" d="
  M 664.66 88.16
  Q 663.89 86.12 662.88 85.63
  Q 661.98 85.18 660.65 86.55
  Q 640.20 107.71 619.86 129.00"
/>
<path stroke="#78746e" vector-effect="non-scaling-stroke" d="
  M 650.67 74.80
  Q 651.41 75.25 651.27 73.97
  A 1.05 1.02 -70.8 0 0 650.99 73.37
  Q 625.99 48.27 600.89 23.36
  Q 599.99 22.46 599.59 21.15"
/>
<path stroke="#f4b97d" vector-effect="non-scaling-stroke" d="
  M 708.23 47.83
  L 722.44 62.90
  Q 723.17 63.67 723.90 62.92
  L 763.43 22.34
  Q 764.10 21.65 765.06 21.65
  L 784.22 21.62
  A 1.03 1.02 22.5 0 1 784.95 23.37
  Q 759.84 48.35 734.67 73.67
  Q 734.45 73.89 734.99 74.48"
/>
<path stroke="#f4b97d" vector-effect="non-scaling-stroke" d="
  M 765.03 128.18
  L 731.56 93.95"
/>
<path stroke="#f4b97d" vector-effect="non-scaling-stroke" d="
  M 724.76 87.30
  Q 725.16 86.41 723.84 85.75
  A 1.35 1.35 0.0 0 0 722.25 86.04
  L 708.45 100.76"
/>
<path stroke="#ca935c" vector-effect="non-scaling-stroke" d="
  M 704.60 105.24
  Q 705.23 105.03 704.32 105.44"
/>
<path stroke="#7b4610" vector-effect="non-scaling-stroke" d="
  M 704.32 105.44
  Q 704.24 105.31 704.10 105.32
  Q 704.02 105.33 703.92 105.42
  Q 697.98 110.84 692.85 116.94"
/>
<path stroke="#f4b97d" vector-effect="non-scaling-stroke" d="
  M 692.85 116.94
  Q 687.76 121.34 682.48 128.29"
/>
<path stroke="#f4b97d" vector-effect="non-scaling-stroke" d="
  M 658.37 128.76
  Q 658.78 128.54 658.94 128.08
  Q 659.09 127.62 659.44 127.28
  Q 669.57 117.24 679.59 107.09
  Q 680.58 106.10 681.04 104.76"
/>
<path stroke="#f4b97d" vector-effect="non-scaling-stroke" d="
  M 692.55 93.91
  L 712.17 74.61
  A 0.84 0.83 -45.2 0 0 712.17 73.42
  L 692.71 54.09"
/>
<path stroke="#f4b97d" vector-effect="non-scaling-stroke" d="
  M 681.67 43.27
  L 664.56 26.32
  Q 664.22 25.97 663.76 25.81
  L 663.01 25.55"
/>
<path stroke="#c7c1ba" vector-effect="non-scaling-stroke" d="
  M 667.06 57.97
  Q 667.06 57.66 666.88 57.78"
/>
<path stroke="#4f4e4d" vector-effect="non-scaling-stroke" d="
  M 704.32 105.44
  L 727.42 128.46"
/>
<path stroke="#4f4e4d" vector-effect="non-scaling-stroke" d="
  M 722.96 128.83
  L 704.79 128.55
  Q 704.26 128.54 703.88 128.16
  L 694.28 118.47"
/>
<path stroke="#78746e" vector-effect="non-scaling-stroke" d="
  M 692.85 117.79
  Q 694.01 118.02 692.85 116.94"
/>
<path stroke="#f4b97d" vector-effect="non-scaling-stroke" d="
  M 692.00 30.67
  Q 691.82 30.59 691.63 30.62
  Q 691.40 30.67 691.24 30.50
  L 683.70 22.63
  A 3.19 3.15 -21.3 0 0 681.47 21.67
  Q 672.71 21.55 663.49 21.63
  Q 661.45 21.65 660.73 23.01"
/>
<path stroke="#4f4e4d" vector-effect="non-scaling-stroke" d="
  M 807.28 22.12
  L 807.32 24.73
  Q 807.33 25.31 806.75 25.35
  L 802.31 25.67"
/>
<path stroke="#4f4e4d" vector-effect="non-scaling-stroke" d="
  M 798.28 38.81
  L 798.47 26.05
  Q 798.48 25.46 797.89 25.42
  L 792.95 25.09"
/>
<path stroke="#4f4e4d" vector-effect="non-scaling-stroke" d="
  M 808.99 22.10
  L 808.46 38.94"
/>
<path stroke="#4f4e4d" vector-effect="non-scaling-stroke" d="
  M 812.50 22.08
  L 818.04 29.06
  A 0.60 0.60 0.0 0 0 818.99 29.05
  L 823.40 23.18"
/>
<path stroke="#4f4e4d" vector-effect="non-scaling-stroke" d="
  M 827.93 22.17
  Q 828.48 22.91 828.47 23.25
  Q 828.08 31.05 828.57 39.08"
/>
<path stroke="#4f4e4d" vector-effect="non-scaling-stroke" d="
  M 824.42 38.95
  L 824.48 28.60
  Q 824.49 27.93 824.02 28.41
  C 822.30 30.17 820.24 33.72 818.00 34.48"
/>
<path stroke="#4f4e4d" vector-effect="non-scaling-stroke" d="
  M 817.81 34.29
  Q 816.50 31.17 813.76 29.06"
/>
<path stroke="#4f4e4d" vector-effect="non-scaling-stroke" d="
  M 425.00 21.81
  A 0.43 0.43 0.0 0 0 424.64 22.00
  L 369.53 106.50
  A 0.43 0.43 0.0 0 1 368.81 106.50
  L 313.77 22.09
  A 0.43 0.43 0.0 0 0 313.41 21.90
  L 293.77 21.68
  A 0.43 0.43 0.0 0 0 293.40 22.34
  L 363.00 128.86
  A 0.43 0.43 0.0 0 0 363.37 129.06
  L 374.88 128.96
  A 0.43 0.43 0.0 0 0 375.24 128.77
  L 444.82 22.28
  A 0.43 0.43 0.0 0 0 444.46 21.62
  L 425.00 21.81"
/>
<path stroke="#4f4e4d" vector-effect="non-scaling-stroke" d="
  M 115.44 111.84
  C 122.17 112.75 126.51 107.29 126.65 101.00
  Q 127.27 75.13 126.55 49.26
  C 126.29 39.69 120.59 37.43 112.12 37.39
  Q 72.45 37.19 33.14 37.20
  A 0.82 0.81 -90.0 0 0 32.33 38.02
  L 32.28 111.73
  Q 32.27 112.07 32.57 112.24
  Q 33.62 112.85 33.01 111.94"
/>
<path stroke="#4f4e4d" vector-effect="non-scaling-stroke" d="
  M 473.27 100.72
  C 472.45 109.12 478.19 112.68 485.75 112.79
  Q 515.25 113.19 544.75 112.94
  C 553.39 112.87 567.77 114.66 566.67 100.85"
/>
<path stroke="#4f4e4d" vector-effect="non-scaling-stroke" d="
  M 566.65 49.92
  Q 567.42 37.52 553.72 37.41
  Q 514.58 37.10 487.25 37.51
  C 478.77 37.64 472.27 39.90 473.27 49.50"
/>
</g>
<path fill="#9d9b99" d="
  M 117.81 128.21
  Q 119.35 127.73 124.51 126.77
  C 137.00 124.46 143.46 112.20 143.54 100.25
  Q 143.70 76.13 143.45 52.00
  C 143.30 37.79 139.17 27.09 124.45 23.20
  Q 118.48 21.61 110.88 21.69
  Q 75.35 22.05 15.00 21.84
  Q 15.00 21.63 15.02 21.44
  Q 15.05 21.01 15.48 21.01
  Q 61.74 20.99 108.00 21.07
  C 114.86 21.09 122.78 21.38 128.74 23.74
  C 141.40 28.75 144.16 40.05 144.10 52.66
  C 144.03 66.64 144.18 80.61 144.11 94.58
  Q 144.06 106.19 142.46 111.21
  Q 137.34 127.36 117.81 128.21
  Z"
/>
<path fill="#9d9b99" d="
  M 280.95 22.64
  Q 279.92 21.65 277.25 21.68
  Q 236.33 22.22 166.01 21.79
  Q 166.01 21.62 166.03 21.42
  Q 166.08 21.00 166.50 21.00
  L 280.11 21.00
  A 0.87 0.87 0.0 0 1 280.98 21.91
  L 280.95 22.64
  Z"
/>
<path fill="#9d9b99" d="
  M 369.18 105.01
  Q 369.47 104.96 369.75 104.53
  Q 396.84 63.00 423.75 21.83
  A 1.88 1.87 16.7 0 1 425.34 20.98
  L 445.72 21.05
  A 0.47 0.47 0.0 0 1 446.11 21.78
  L 375.79 129.48
  A 1.41 1.40 16.9 0 1 374.60 130.11
  L 363.49 129.95
  A 1.15 1.15 0.0 0 1 362.53 129.43
  L 292.93 22.79
  A 1.12 1.09 72.8 0 1 293.81 21.06
  L 311.92 20.98
  A 3.80 3.78 73.2 0 1 315.11 22.70
  L 368.40 104.59
  A 0.90 0.67 65.0 0 0 369.18 105.01
  Z
  M 425.00 21.81
  A 0.43 0.43 0.0 0 0 424.64 22.00
  L 369.53 106.50
  A 0.43 0.43 0.0 0 1 368.81 106.50
  L 313.77 22.09
  A 0.43 0.43 0.0 0 0 313.41 21.90
  L 293.77 21.68
  A 0.43 0.43 0.0 0 0 293.40 22.34
  L 363.00 128.86
  A 0.43 0.43 0.0 0 0 363.37 129.06
  L 374.88 128.96
  A 0.43 0.43 0.0 0 0 375.24 128.77
  L 444.82 22.28
  A 0.43 0.43 0.0 0 0 444.46 21.62
  L 425.00 21.81
  Z"
/>
<path fill="#9d9b99" d="
  M 559.30 21.70
  L 481.03 21.82
  Q 480.90 21.82 480.86 21.73
  Q 480.82 21.65 480.72 21.61
  Q 482.98 21.02 484.00 21.02
  Q 516.75 20.98 549.50 20.97
  Q 554.46 20.97 559.30 21.70
  Z"
/>
<path fill="#000000" d="
  M 600.16 21.20
  Q 609.52 21.86 618.85 21.70
  C 620.65 21.67 621.82 22.31 622.99 23.52
  Q 641.74 43.02 660.65 62.49
  Q 660.73 62.06 661.57 62.81
  Q 661.23 62.39 661.25 62.85
  A 0.47 0.47 0.0 0 0 662.05 63.16
  L 667.06 57.97
  L 681.67 43.27
  Q 687.12 38.74 692.16 32.17
  Q 692.66 31.52 692.91 30.72
  Q 694.22 28.95 695.84 28.00
  L 700.64 22.96
  A 4.33 4.30 -68.1 0 1 703.77 21.61
  L 723.51 21.63
  A 0.76 0.76 0.0 0 1 724.05 22.93
  L 692.71 54.09
  L 673.87 72.88
  Q 672.61 74.14 673.87 75.39
  L 692.55 93.91
  Q 686.73 100.22 681.50 104.75
  Q 681.28 104.94 681.04 104.76
  L 666.27 89.52
  L 664.66 88.16
  Q 663.89 86.12 662.88 85.63
  Q 661.98 85.18 660.65 86.55
  Q 640.20 107.71 619.86 129.00
  L 597.67 128.96
  Q 596.51 128.96 597.33 128.14
  L 650.67 74.80
  Q 651.41 75.25 651.27 73.97
  A 1.05 1.02 -70.8 0 0 650.99 73.37
  Q 625.99 48.27 600.89 23.36
  Q 599.99 22.46 599.59 21.15
  Q 600.15 21.00 600.16 21.20
  Z"
/>
<path fill="#9d9b99" d="
  M 600.16 21.20
  Q 610.13 20.83 620.00 21.04
  Q 621.62 21.07 622.81 22.15
  C 627.91 26.77 632.95 33.08 636.91 37.12
  C 644.94 45.32 653.86 53.24 660.65 62.49
  Q 641.74 43.02 622.99 23.52
  C 621.82 22.31 620.65 21.67 618.85 21.70
  Q 609.52 21.86 600.16 21.20
  Z"
/>
<path fill="#f1e8dc" fill-opacity="0.996" d="
  M 692.00 30.67
  Q 691.82 30.59 691.63 30.62
  Q 691.40 30.67 691.24 30.50
  L 683.70 22.63
  A 3.19 3.15 -21.3 0 0 681.47 21.67
  Q 672.71 21.55 663.49 21.63
  Q 661.45 21.65 660.73 23.01
  Q 659.99 22.43 659.89 22.21
  Q 659.43 21.19 660.56 21.16
  Q 670.87 20.91 680.25 21.04
  Q 682.72 21.08 684.20 22.55
  Q 688.19 26.53 692.00 30.67
  Z"
/>
<path fill="#f68b1f" d="
  M 708.23 47.83
  L 722.44 62.90
  Q 723.17 63.67 723.90 62.92
  L 763.43 22.34
  Q 764.10 21.65 765.06 21.65
  L 784.22 21.62
  A 1.03 1.02 22.5 0 1 784.95 23.37
  Q 759.84 48.35 734.67 73.67
  Q 734.45 73.89 734.99 74.48
  L 788.87 128.48
  Q 789.31 128.93 788.69 128.95
  Q 775.50 129.53 766.00 128.87
  Q 765.20 128.82 765.03 128.18
  L 731.56 93.95
  L 724.76 87.30
  Q 725.16 86.41 723.84 85.75
  A 1.35 1.35 0.0 0 0 722.25 86.04
  L 708.45 100.76
  L 704.60 105.24
  Q 705.23 105.03 704.32 105.44
  Q 704.24 105.31 704.10 105.32
  Q 704.02 105.33 703.92 105.42
  Q 697.98 110.84 692.85 116.94
  Q 687.76 121.34 682.48 128.29
  Q 671.68 129.74 658.37 128.76
  Q 658.78 128.54 658.94 128.08
  Q 659.09 127.62 659.44 127.28
  Q 669.57 117.24 679.59 107.09
  Q 680.58 106.10 681.04 104.76
  Q 681.28 104.94 681.50 104.75
  Q 686.73 100.22 692.55 93.91
  L 712.17 74.61
  A 0.84 0.83 -45.2 0 0 712.17 73.42
  L 692.71 54.09
  L 724.05 22.93
  A 0.76 0.76 0.0 0 0 723.51 21.63
  L 703.77 21.61
  A 4.33 4.30 -68.1 0 0 700.64 22.96
  L 695.84 28.00
  L 700.97 21.45
  A 1.23 1.21 -70.6 0 1 701.93 20.98
  L 724.52 21.07
  A 0.75 0.75 0.0 0 1 725.05 22.35
  L 704.44 43.07
  A 0.66 0.66 0.0 0 0 704.44 44.01
  L 708.23 47.83
  Z"
/>
<path fill="#f1e8dc" fill-opacity="0.996" d="
  M 734.99 74.48
  Q 734.45 73.89 734.67 73.67
  Q 759.84 48.35 784.95 23.37
  A 1.03 1.02 22.5 0 0 784.22 21.62
  L 765.06 21.65
  Q 764.10 21.65 763.43 22.34
  L 723.90 62.92
  Q 723.17 63.67 722.44 62.90
  L 708.23 47.83
  L 722.07 61.68
  A 1.15 1.15 0.0 0 0 723.69 61.68
  Q 740.59 44.81 757.58 27.76
  C 759.35 25.99 761.06 23.14 763.38 21.23
  Q 763.73 20.94 764.18 20.95
  L 786.21 21.19
  Q 788.15 21.21 786.78 22.58
  L 734.99 74.48
  Z"
/>
<path fill="#f1e8dc" fill-opacity="0.996" d="
  M 599.59 21.15
  Q 599.99 22.46 600.89 23.36
  Q 625.99 48.27 650.99 73.37
  A 1.05 1.02 -70.8 0 1 651.27 73.97
  Q 651.41 75.25 650.67 74.80
  Q 651.02 74.38 650.35 73.71
  Q 625.11 48.61 599.94 23.45
  Q 599.41 22.92 599.16 22.51
  Q 598.35 21.17 599.59 21.15
  Z"
/>
<path fill="#000000" d="
  M 117.81 128.21
  L 114.83 128.33
  Q 109.50 128.05 107.00 128.05
  Q 84.72 127.99 22.75 128.04
  Q 17.39 128.05 14.99 128.92
  L 15.00 21.84
  Q 75.35 22.05 110.88 21.69
  Q 118.48 21.61 124.45 23.20
  C 139.17 27.09 143.30 37.79 143.45 52.00
  Q 143.70 76.13 143.54 100.25
  C 143.46 112.20 137.00 124.46 124.51 126.77
  Q 119.35 127.73 117.81 128.21
  Z
  M 33.01 111.94
  L 115.44 111.84
  C 122.17 112.75 126.51 107.29 126.65 101.00
  Q 127.27 75.13 126.55 49.26
  C 126.29 39.69 120.59 37.43 112.12 37.39
  Q 72.45 37.19 33.14 37.20
  A 0.82 0.81 -90.0 0 0 32.33 38.02
  L 32.28 111.73
  Q 32.27 112.07 32.57 112.24
  Q 33.62 112.85 33.01 111.94
  Z"
/>
<path fill="#000000" d="
  M 280.95 22.64
  L 280.99 37.00
  A 1.00 0.99 -0.3 0 1 279.99 38.00
  L 184.49 38.00
  A 0.50 0.50 0.0 0 0 183.99 38.50
  L 183.98 66.52
  Q 183.17 67.32 184.42 67.82
  A 1.41 1.39 -33.9 0 0 184.94 67.92
  L 279.72 67.82
  A 1.00 1.00 0.0 0 1 280.71 68.94
  L 279.30 80.49
  Q 279.51 82.19 279.09 83.08
  Q 278.70 83.90 277.08 83.91
  Q 230.77 84.07 184.73 83.99
  A 0.72 0.71 0.0 0 0 184.01 84.70
  L 184.00 111.71
  Q 183.69 111.81 183.67 112.08
  Q 183.61 112.63 184.17 112.63
  L 284.89 112.94
  L 284.87 129.20
  L 166.02 129.26
  L 166.01 21.79
  Q 236.33 22.22 277.25 21.68
  Q 279.92 21.65 280.95 22.64
  Z"
/>
<path fill="#000000" d="
  M 425.00 21.81
  L 444.46 21.62
  A 0.43 0.43 0.0 0 1 444.82 22.28
  L 375.24 128.77
  A 0.43 0.43 0.0 0 1 374.88 128.96
  L 363.37 129.06
  A 0.43 0.43 0.0 0 1 363.00 128.86
  L 293.40 22.34
  A 0.43 0.43 0.0 0 1 293.77 21.68
  L 313.41 21.90
  A 0.43 0.43 0.0 0 1 313.77 22.09
  L 368.81 106.50
  A 0.43 0.43 0.0 0 0 369.53 106.50
  L 424.64 22.00
  A 0.43 0.43 0.0 0 1 425.00 21.81
  Z"
/>
<path fill="#000000" d="
  M 480.72 21.61
  Q 480.82 21.65 480.86 21.73
  Q 480.90 21.82 481.03 21.82
  L 559.30 21.70
  L 561.55 21.79
  Q 561.55 22.24 562.32 22.37
  C 573.30 24.23 580.93 31.14 582.99 42.02
  Q 583.39 44.17 584.12 46.27
  L 584.12 103.85
  Q 581.26 123.73 563.61 127.69
  C 559.83 128.54 554.51 128.62 550.73 128.58
  Q 526.43 128.27 502.13 128.38
  C 484.52 128.45 462.11 131.65 457.11 108.96
  Q 456.60 106.61 455.93 104.17
  L 456.08 45.80
  Q 458.75 25.86 478.81 21.94
  Q 479.44 21.59 480.72 21.61
  Z
  M 473.27 49.50
  L 473.27 100.72
  C 472.45 109.12 478.19 112.68 485.75 112.79
  Q 515.25 113.19 544.75 112.94
  C 553.39 112.87 567.77 114.66 566.67 100.85
  Q 567.53 75.64 566.65 49.92
  Q 567.42 37.52 553.72 37.41
  Q 514.58 37.10 487.25 37.51
  C 478.77 37.64 472.27 39.90 473.27 49.50
  Z"
/>
<path fill="#9d9b99" d="
  M 478.81 21.94
  Q 458.75 25.86 456.08 45.80
  Q 455.87 43.24 456.22 41.75
  Q 460.45 23.51 478.81 21.94
  Z"
/>
<path fill="#9d9b99" d="
  M 561.55 21.79
  Q 582.57 24.67 584.12 46.27
  Q 583.39 44.17 582.99 42.02
  C 580.93 31.14 573.30 24.23 562.32 22.37
  Q 561.55 22.24 561.55 21.79
  Z"
/>
<path fill="#f68b1f" d="
  M 692.00 30.67
  Q 692.58 31.04 692.91 30.72
  Q 692.66 31.52 692.16 32.17
  Q 687.12 38.74 681.67 43.27
  L 664.56 26.32
  Q 664.22 25.97 663.76 25.81
  L 663.01 25.55
  L 660.73 23.01
  Q 661.45 21.65 663.49 21.63
  Q 672.71 21.55 681.47 21.67
  A 3.19 3.15 -21.3 0 1 683.70 22.63
  L 691.24 30.50
  Q 691.40 30.67 691.63 30.62
  Q 691.82 30.59 692.00 30.67
  Z"
/>
<path fill="#000000" d="
  M 807.28 22.12
  L 807.32 24.73
  Q 807.33 25.31 806.75 25.35
  L 802.31 25.67
  Q 801.69 31.42 802.05 37.25
  Q 802.07 37.57 802.54 38.37
  Q 802.87 38.93 802.22 38.91
  L 798.28 38.81
  L 798.47 26.05
  Q 798.48 25.46 797.89 25.42
  L 792.95 25.09
  L 793.05 22.83
  Q 793.07 22.22 793.68 22.21
  L 807.28 22.12
  Z"
/>
<path fill="#9d9b99" d="
  M 807.28 22.12
  Q 808.61 21.86 808.99 22.10
  L 808.46 38.94
  L 808.08 26.75
  A 1.09 1.09 0.0 0 0 806.64 25.75
  Q 804.90 26.33 802.31 25.67
  L 806.75 25.35
  Q 807.33 25.31 807.32 24.73
  L 807.28 22.12
  Z"
/>
<path fill="#000000" d="
  M 808.99 22.10
  L 812.50 22.08
  L 818.04 29.06
  A 0.60 0.60 0.0 0 0 818.99 29.05
  L 823.40 23.18
  Q 824.81 21.41 827.93 22.17
  Q 828.48 22.91 828.47 23.25
  Q 828.08 31.05 828.57 39.08
  L 824.42 38.95
  L 824.48 28.60
  Q 824.49 27.93 824.02 28.41
  C 822.30 30.17 820.24 33.72 818.00 34.48
  Q 817.74 34.45 817.81 34.29
  Q 816.50 31.17 813.76 29.06
  L 813.30 29.13
  Q 812.95 29.19 812.95 29.55
  L 813.02 38.32
  A 0.58 0.57 -1.0 0 1 812.45 38.90
  L 808.46 38.94
  L 808.99 22.10
  Z"
/>
<path fill="#9d9b99" d="
  M 812.50 22.08
  C 813.52 21.91 814.20 22.32 814.64 23.30
  Q 815.95 26.20 818.77 27.98
  Q 819.27 28.29 819.52 27.76
  Q 820.87 24.96 823.40 23.18
  L 818.99 29.05
  A 0.60 0.60 0.0 0 1 818.04 29.06
  L 812.50 22.08
  Z"
/>
<path fill="#9d9b99" d="
  M 828.57 39.08
  Q 828.08 31.05 828.47 23.25
  Q 828.48 22.91 827.93 22.17
  Q 828.18 21.99 828.50 22.18
  Q 828.89 22.42 828.88 22.87
  L 828.57 39.08
  Z"
/>
<path fill="#9d9b99" d="
  M 792.95 25.09
  L 797.89 25.42
  Q 798.48 25.46 798.47 26.05
  L 798.28 38.81
  L 798.01 26.56
  A 0.64 0.63 -3.3 0 0 797.31 25.94
  Q 793.84 26.30 792.95 25.09
  Z"
/>
<path fill="#f1e8dc" fill-opacity="0.996" d="
  M 663.01 25.55
  L 663.76 25.81
  Q 664.22 25.97 664.56 26.32
  L 681.67 43.27
  L 667.06 57.97
  Q 667.06 57.66 666.88 57.78
  L 679.79 43.35
  A 0.82 0.82 0.0 0 0 679.76 42.22
  L 663.01 25.55
  Z"
/>
<path fill="#9d9b99" d="
  M 824.42 38.95
  L 823.95 30.30
  A 0.41 0.41 0.0 0 0 823.22 30.07
  Q 821.65 32.08 820.31 34.13
  Q 819.88 34.78 819.37 34.96
  Q 818.43 35.28 818.00 34.48
  C 820.24 33.72 822.30 30.17 824.02 28.41
  Q 824.49 27.93 824.48 28.60
  L 824.42 38.95
  Z"
/>
<path fill="#9d9b99" d="
  M 817.81 34.29
  L 813.76 29.06
  Q 816.50 31.17 817.81 34.29
  Z"
/>
<path fill="#9d9b99" d="
  M 115.44 111.84
  Q 123.51 110.48 125.41 104.48
  Q 125.94 102.80 125.98 93.48
  Q 126.10 65.18 125.96 49.25
  Q 125.91 43.88 122.26 40.67
  C 119.06 37.84 115.01 38.01 110.75 38.01
  Q 72.14 37.97 33.54 38.01
  Q 33.01 38.01 33.01 38.54
  L 33.01 111.94
  Q 33.62 112.85 32.57 112.24
  Q 32.27 112.07 32.28 111.73
  L 32.33 38.02
  A 0.82 0.81 90.0 0 1 33.14 37.20
  Q 72.45 37.19 112.12 37.39
  C 120.59 37.43 126.29 39.69 126.55 49.26
  Q 127.27 75.13 126.65 101.00
  C 126.51 107.29 122.17 112.75 115.44 111.84
  Z"
/>
<path fill="#9d9b99" d="
  M 566.65 49.92
  Q 566.13 48.05 565.81 45.94
  C 565.05 40.98 560.67 38.05 555.86 38.04
  Q 522.18 37.95 488.50 37.83
  Q 483.15 37.81 479.14 39.35
  C 474.05 41.30 474.78 45.03 473.27 49.50
  C 472.27 39.90 478.77 37.64 487.25 37.51
  Q 514.58 37.10 553.72 37.41
  Q 567.42 37.52 566.65 49.92
  Z"
/>
<path fill="#f1e8dc" fill-opacity="0.996" d="
  M 692.71 54.09
  L 712.17 73.42
  A 0.84 0.83 -45.2 0 1 712.17 74.61
  L 692.55 93.91
  L 673.87 75.39
  Q 672.61 74.14 673.87 72.88
  L 692.71 54.09
  Z
  M 711.0028 74.3902
  A 0.63 0.63 0.0 0 0 711.0013 73.4993
  L 692.8961 55.4572
  A 0.63 0.63 0.0 0 0 692.0051 55.4588
  L 673.9772 73.5498
  A 0.63 0.63 0.0 0 0 673.9787 74.4407
  L 692.0839 92.4828
  A 0.63 0.63 0.0 0 0 692.9749 92.4812
  L 711.0028 74.3902
  Z"
/>
<path fill="#9d9b99" d="
  M 666.88 57.78
  Q 667.06 57.66 667.06 57.97
  L 662.05 63.16
  A 0.47 0.47 0.0 0 1 661.25 62.85
  Q 661.23 62.39 661.57 62.81
  L 666.88 57.78
  Z"
/>
<path fill="#9d9b99" d="
  M 183.98 66.52
  Q 183.71 67.01 184.25 67.01
  Q 232.26 66.99 280.22 67.03
  A 0.88 0.88 0.0 0 1 281.09 68.03
  L 279.30 80.49
  L 280.71 68.94
  A 1.00 1.00 0.0 0 0 279.72 67.82
  L 184.94 67.92
  A 1.41 1.39 -33.9 0 1 184.42 67.82
  Q 183.17 67.32 183.98 66.52
  Z"
/>
<path fill="#9d9b99" d="
  M 664.66 88.16
  L 663.02 86.54
  Q 662.62 86.15 662.22 86.53
  Q 648.42 99.47 633.42 116.17
  Q 627.85 122.38 619.86 129.00
  Q 640.20 107.71 660.65 86.55
  Q 661.98 85.18 662.88 85.63
  Q 663.89 86.12 664.66 88.16
  Z"
/>
<path fill="#f1e8dc" fill-opacity="0.996" d="
  M 724.76 87.30
  Q 723.71 85.65 722.74 86.70
  Q 715.96 94.04 708.45 100.76
  L 722.25 86.04
  A 1.35 1.35 0.0 0 1 723.84 85.75
  Q 725.16 86.41 724.76 87.30
  Z"
/>
<path fill="#f1e8dc" fill-opacity="0.996" d="
  M 666.27 89.52
  L 681.04 104.76
  Q 680.58 106.10 679.59 107.09
  Q 669.57 117.24 659.44 127.28
  Q 659.09 127.62 658.94 128.08
  Q 658.78 128.54 658.37 128.76
  Q 657.01 128.56 659.38 126.13
  Q 669.32 115.94 679.79 105.65
  A 0.82 0.82 0.0 0 0 679.83 104.52
  L 666.27 89.52
  Z"
/>
<path fill="#f1e8dc" fill-opacity="0.996" d="
  M 731.56 93.95
  L 765.03 128.18
  Q 747.23 111.97 731.56 93.95
  Z"
/>
<path fill="#9d9b99" d="
  M 473.27 100.72
  C 474.05 102.85 474.06 105.11 474.98 106.92
  C 477.26 111.41 480.77 112.04 485.84 112.03
  Q 517.27 111.95 548.70 112.04
  Q 558.04 112.06 559.78 111.47
  Q 565.75 109.44 566.67 100.85
  C 567.77 114.66 553.39 112.87 544.75 112.94
  Q 515.25 113.19 485.75 112.79
  C 478.19 112.68 472.45 109.12 473.27 100.72
  Z"
/>
<path fill="#9d9b99" d="
  M 584.12 103.85
  Q 582.80 122.58 567.00 127.45
  Q 562.16 128.94 551.08 128.94
  Q 516.56 128.95 481.99 128.95
  C 467.24 128.96 456.60 119.03 455.93 104.17
  Q 456.60 106.61 457.11 108.96
  C 462.11 131.65 484.52 128.45 502.13 128.38
  Q 526.43 128.27 550.73 128.58
  C 554.51 128.62 559.83 128.54 563.61 127.69
  Q 581.26 123.73 584.12 103.85
  Z"
/>
<path fill="#000000" d="
  M 704.32 105.44
  L 727.42 128.46
  Q 725.16 129.32 722.96 128.83
  L 704.79 128.55
  Q 704.26 128.54 703.88 128.16
  L 694.28 118.47
  Q 693.93 118.58 692.85 117.79
  Q 694.01 118.02 692.85 116.94
  Q 697.98 110.84 703.92 105.42
  Q 704.02 105.33 704.10 105.32
  Q 704.24 105.31 704.32 105.44
  Z"
/>
<path fill="#9d9b99" d="
  M 704.60 105.24
  Q 716.65 116.30 727.42 128.46
  L 704.32 105.44
  Q 705.23 105.03 704.60 105.24
  Z"
/>
<path fill="#9d9b99" d="
  M 184.00 111.71
  L 284.13 112.01
  Q 284.60 112.01 284.74 112.46
  L 284.89 112.94
  L 184.17 112.63
  Q 183.61 112.63 183.67 112.08
  Q 183.69 111.81 184.00 111.71
  Z"
/>
<path fill="#f1e8dc" fill-opacity="0.996" d="
  M 692.85 116.94
  Q 694.01 118.02 692.85 117.79
  L 682.48 128.29
  Q 687.76 121.34 692.85 116.94
  Z"
/>
<path fill="#9d9b99" d="
  M 694.28 118.47
  L 703.88 128.16
  Q 704.26 128.54 704.79 128.55
  L 722.96 128.83
  L 704.21 128.91
  Q 703.69 128.91 703.28 128.60
  Q 697.88 124.43 694.28 118.47
  Z"
/>
<path fill="#9d9b99" d="
  M 114.83 128.33
  Q 111.76 128.92 108.75 128.93
  Q 62.00 129.06 14.99 128.92
  Q 17.39 128.05 22.75 128.04
  Q 84.72 127.99 107.00 128.05
  Q 109.50 128.05 114.83 128.33
  Z"
/>
<path fill="#f1e8dc" fill-opacity="0.996" d="
  M 284.87 129.20
  Q 284.86 130.15 283.00 130.14
  Q 224.96 130.01 166.92 129.99
  Q 166.48 129.99 166.24 129.62
  Q 166.15 129.46 166.02 129.26
  L 284.87 129.20
  Z"
/>
</svg>
