<?xml version="1.0" standalone="no"?>
<!DOCTYPE svg PUBLIC "-//W3C//DTD SVG 20010904//EN"
 "http://www.w3.org/TR/2001/REC-SVG-20010904/DTD/svg10.dtd">
<svg version="1.0" xmlns="http://www.w3.org/2000/svg"
 width="242.000000pt" height="242.000000pt" viewBox="0 0 242.000000 242.000000"
 preserveAspectRatio="xMidYMid meet">
<metadata>
Created by potrace 1.14, written by Peter Selinger 2001-2017
</metadata>
<g transform="translate(0.000000,242.000000) scale(0.100000,-0.100000)"
fill="#000000" stroke="none">
<path d="M0 1210 l0 -1210 1210 0 1210 0 0 1210 0 1210 -1210 0 -1210 0 0
-1210z m1470 732 l545 -300 0 -263 0 -263 -210 -127 -210 -128 -5 255 -5 256
-557 306 c-307 168 -555 309 -550 314 24 24 420 256 432 254 8 -2 260 -139
560 -304z m-360 -600 l215 -118 3 -502 c1 -276 -1 -502 -5 -502 -5 0 -105 53
-223 118 l-215 119 -3 501 c-1 276 1 502 5 502 5 0 105 -53 223 -118z"/>
</g>
</svg>
