<?xml version="1.0" standalone="no"?>
<!DOCTYPE svg PUBLIC "-//W3C//DTD SVG 20010904//EN"
 "http://www.w3.org/TR/2001/REC-SVG-20010904/DTD/svg10.dtd">
<svg version="1.0" xmlns="http://www.w3.org/2000/svg"
 width="377.000000pt" height="377.000000pt" viewBox="0 0 377.000000 377.000000"
 preserveAspectRatio="xMidYMid meet">
<metadata>
Created by potrace 1.14, written by Peter Selinger 2001-2017
</metadata>
<g transform="translate(0.000000,377.000000) scale(0.100000,-0.100000)"
fill="#000000" stroke="none">
<path d="M1100 3670 c-80 -49 -151 -93 -159 -97 -8 -3 -85 -49 -170 -102 -86
-52 -193 -116 -238 -143 -46 -27 -83 -51 -83 -53 0 -4 55 -35 160 -93 30 -16
96 -52 145 -79 50 -27 126 -69 170 -93 44 -24 96 -52 115 -63 145 -81 229
-127 415 -227 44 -24 85 -46 90 -50 6 -4 109 -61 230 -127 121 -66 238 -131
260 -143 22 -12 72 -40 110 -61 39 -21 135 -73 215 -117 l145 -80 2 -472 c1
-259 3 -474 6 -476 2 -2 80 43 173 100 93 56 273 166 399 243 l230 139 0 473
c0 260 -2 476 -5 480 -4 6 -249 142 -500 278 -30 17 -71 39 -90 50 -20 11 -70
39 -112 61 -42 23 -99 55 -128 72 -28 16 -52 30 -54 30 -2 0 -39 20 -82 44
-44 23 -149 81 -234 128 -85 47 -175 97 -200 110 -25 14 -97 53 -160 88 -63
35 -137 75 -165 90 -27 15 -93 51 -145 80 -137 76 -182 100 -189 100 -3 -1
-71 -41 -151 -90z"/>
<path d="M1219 2308 c-1 -2 -2 -419 -3 -927 l-1 -923 25 -17 c14 -10 66 -40
115 -66 50 -27 104 -56 120 -65 17 -9 57 -32 90 -50 33 -18 80 -44 105 -58 25
-13 68 -37 95 -52 51 -28 99 -54 213 -117 64 -35 65 -35 64 17 -1 27 -1 532 0
1302 1 498 -1 528 -32 528 -5 0 -39 17 -77 39 -37 21 -99 55 -138 76 -38 21
-108 59 -155 85 -158 88 -175 97 -290 160 -63 34 -118 65 -122 67 -5 2 -9 3
-9 1z"/>
</g>
</svg>
