<svg xmlns="http://www.w3.org/2000/svg" xmlns:xlink="http://www.w3.org/1999/xlink" width="159.001" height="27.458" viewBox="0 0 159.001 27.458">
  <defs>
    <clipPath id="clip-path">
      <rect id="Rectangle_2" data-name="Rectangle 2" width="159.001" height="27.458" fill="none"/>
    </clipPath>
  </defs>
  <g id="Group_2" data-name="Group 2" transform="translate(0 0)">
    <g id="Group_1" data-name="Group 1" transform="translate(0 0)" clip-path="url(#clip-path)">
      <path id="Path_1" data-name="Path 1" d="M35.645,27.13h-.007a4.623,4.623,0,0,1-4.472-3.375l-.05-.2L28.6,11.725,25.257,23.859a4.373,4.373,0,0,1-8.39.124l-.01-.034L14.113,14.7l-2.935,9.263a4.221,4.221,0,0,1-4.04,3.092H7.075A4.219,4.219,0,0,1,3,24.034L.144,15.186a2.949,2.949,0,1,1,5.613-1.813l1.306,4.043,2.169-6.843A5.1,5.1,0,0,1,19,10.443l.01.034,1.976,6.665L23.8,6.95A5.055,5.055,0,0,1,28.7,3.222h.013a5.05,5.05,0,0,1,4.9,3.69l.05.2,2.208,10.4L40.574,2.089a2.949,2.949,0,0,1,5.641,1.723l-6.1,19.98a4.622,4.622,0,0,1-4.468,3.338" transform="translate(0 0)" fill="#fff"/>
      <path id="Path_2" data-name="Path 2" d="M145.723,33.378a10.119,10.119,0,0,1-1.971,3.208,10.3,10.3,0,0,1-17.737-7.072,9.841,9.841,0,0,1,10.24-10.24A9.7,9.7,0,0,1,146.3,29.128a9.592,9.592,0,0,1-.116,1.468l-.077.464h-14.3a4.3,4.3,0,0,0,4.444,4.057,4.848,4.848,0,0,0,2.782-.85,3.87,3.87,0,0,0,.889-.889Zm-5.023-5.8c-.58-2.589-2.087-3.864-4.444-3.864s-3.864,1.275-4.444,3.864Z" transform="translate(-80.395 -12.296)" fill="#fff"/>
      <path id="Path_3" data-name="Path 3" d="M189.76.061h5.8V8.949h.193a5.954,5.954,0,0,1,1.2-.966,7.631,7.631,0,0,1,3.826-.966c5.217,0,9.467,4.251,9.467,10.24S205.99,27.5,200.773,27.5a7.367,7.367,0,0,1-4.173-1.159,5.109,5.109,0,0,1-1.237-1.159h-.193l-.387,1.932H189.76Zm14.684,17.2c0-2.937-1.932-4.83-4.444-4.83s-4.444,1.893-4.444,4.83,1.932,4.83,4.444,4.83,4.444-1.894,4.444-4.83" transform="translate(-121.063 -0.039)" fill="#fff"/>
      <path id="Path_4" data-name="Path 4" d="M256.1,33.185a2.127,2.127,0,0,0,.425,1.159,3.214,3.214,0,0,0,2.86,1.159c2.164,0,3.091-.966,3.091-1.932,0-1.2-.58-1.662-2.318-1.932l-2.9-.387c-4.676-.618-6.569-2.512-6.569-5.8s2.9-6.183,8.5-6.183c4.135,0,6.337,1.545,7.458,3.091a6.622,6.622,0,0,1,1.236,3.091h-5.6a2.263,2.263,0,0,0-.541-.85,3.441,3.441,0,0,0-2.55-.889c-1.971,0-2.9.773-2.9,1.739,0,.773.58,1.275,2.318,1.546l2.9.386c4.482.58,6.569,2.666,6.569,6.183,0,3.284-2.9,6.183-8.694,6.183-4.483,0-6.608-1.623-7.767-3.285a6.432,6.432,0,0,1-1.12-3.285Z" transform="translate(-159.809 -12.296)" fill="#fff"/>
      <path id="Path_5" data-name="Path 5" d="M305.961,18.446H302.87v-5.41h3.091V8.89h5.8v4.146H316.2v5.41h-4.444v7.535a1.206,1.206,0,0,0,1.353,1.353H316.2v5.41h-4.637c-3.71,0-5.6-1.894-5.6-5.41Z" transform="translate(-193.224 -5.672)" fill="#fff"/>
      <path id="Path_6" data-name="Path 6" d="M358.669,37.629h-.193a5.175,5.175,0,0,1-1.314,1.082,7.548,7.548,0,0,1-4.1,1.044c-4.637,0-7.342-2.705-7.342-6.183,0-3.671,2.705-6.376,8.115-6.376h4.444v-.386a2.775,2.775,0,0,0-3.091-2.9,3.44,3.44,0,0,0-2.473.888,2.512,2.512,0,0,0-.618.85h-5.6c.425-3.517,3.284-6.376,8.694-6.376,5.758,0,8.888,3.091,8.888,7.5v12.6h-5.023Zm-.387-6.569h-3.671c-2.164,0-3.091.928-3.091,2.125s.966,2.125,2.705,2.125a3.706,3.706,0,0,0,4.057-3.864Z" transform="translate(-220.564 -12.296)" fill="#fff"/>
      <path id="Path_7" data-name="Path 7" d="M403.977,18.879H409l.387,1.546h.193a5.153,5.153,0,0,1,.812-.773,4.291,4.291,0,0,1,2.666-.773h3.671v5.939h-3.478q-3.478,0-3.478,3.478v10.82h-5.8Z" transform="translate(-257.728 -12.044)" fill="#fff"/>
    </g>
  </g>
</svg>
